<svg width="48" height="48" viewBox="0 0 48 48" fill="none" xmlns="http://www.w3.org/2000/svg">
<g filter="url(#filter0_d_1230_3132)">
<circle cx="16" cy="16" r="16" transform="matrix(-1 0 0 1 40 4)" fill="black"/>
<path fill-rule="evenodd" clip-rule="evenodd" d="M19.8125 20.0005C19.8125 20.1773 19.8827 20.3469 20.0078 20.4719C20.1328 20.597 20.3024 20.6672 20.4792 20.6672H28.8125C28.9893 20.6672 29.1589 20.597 29.2839 20.4719C29.4089 20.3469 29.4792 20.1773 29.4792 20.0005C29.4792 19.8237 29.4089 19.6541 29.2839 19.5291C29.1589 19.4041 28.9893 19.3339 28.8125 19.3339H20.4792C20.3024 19.3339 20.1328 19.4041 20.0078 19.5291C19.8827 19.6541 19.8125 19.8237 19.8125 20.0005Z" fill="white"/>
<path fill-rule="evenodd" clip-rule="evenodd" d="M18.8125 19.9997C18.8125 20.1765 18.8828 20.346 19.0078 20.471L22.0078 23.471C22.1328 23.5961 22.3024 23.6664 22.4793 23.6665C22.6561 23.6666 22.8257 23.5964 22.9508 23.4714C23.0759 23.3463 23.1462 23.1768 23.1463 22.9999C23.1464 22.8231 23.0762 22.6534 22.9512 22.5284L20.4218 19.9997L22.9505 17.471C23.0755 17.3459 23.1457 17.1763 23.1456 16.9995C23.1456 16.8226 23.0753 16.653 22.9502 16.528C22.8251 16.403 22.6554 16.3328 22.4786 16.3329C22.3018 16.3329 22.1322 16.4033 22.0072 16.5284L19.0072 19.5284C18.8824 19.6535 18.8124 19.823 18.8125 19.9997Z" fill="white"/>
</g>
<defs>
<filter id="filter0_d_1230_3132" x="0" y="0" width="48" height="48" filterUnits="userSpaceOnUse" color-interpolation-filters="sRGB">
<feFlood flood-opacity="0" result="BackgroundImageFix"/>
<feColorMatrix in="SourceAlpha" type="matrix" values="0 0 0 0 0 0 0 0 0 0 0 0 0 0 0 0 0 0 127 0" result="hardAlpha"/>
<feOffset dy="4"/>
<feGaussianBlur stdDeviation="4"/>
<feComposite in2="hardAlpha" operator="out"/>
<feColorMatrix type="matrix" values="0 0 0 0 0 0 0 0 0 0 0 0 0 0 0 0 0 0 0.08 0"/>
<feBlend mode="normal" in2="BackgroundImageFix" result="effect1_dropShadow_1230_3132"/>
<feBlend mode="normal" in="SourceGraphic" in2="effect1_dropShadow_1230_3132" result="shape"/>
</filter>
</defs>
</svg>
