<svg width="40" height="40" viewBox="0 0 40 40" fill="none" xmlns="http://www.w3.org/2000/svg">
<circle cx="20" cy="20" r="20" fill="white"/>
<path fill-rule="evenodd" clip-rule="evenodd" d="M23.7064 16.2963C23.8627 16.4526 23.9505 16.6645 23.9505 16.8855C23.9505 17.1066 23.8627 17.3185 23.7064 17.4748L16.3407 24.8405C16.1845 24.9968 15.9725 25.0846 15.7515 25.0846C15.5305 25.0846 15.3185 24.9968 15.1622 24.8405C15.006 24.6842 14.9182 24.4722 14.9182 24.2512C14.9182 24.0302 15.006 23.8183 15.1622 23.662L22.5279 16.2963C22.6842 16.14 22.8962 16.0522 23.1172 16.0522C23.3382 16.0522 23.5502 16.14 23.7064 16.2963Z" fill="#181818"/>
<path fill-rule="evenodd" clip-rule="evenodd" d="M24.5887 15.4129C24.7449 15.5692 24.8327 15.7812 24.8326 16.0022L24.8326 21.3055C24.8327 21.5265 24.745 21.7385 24.5887 21.8949C24.4325 22.0513 24.2205 22.1392 23.9994 22.1393C23.7784 22.1393 23.5663 22.0516 23.41 21.8953C23.2536 21.7391 23.1657 21.5271 23.1656 21.306L23.1662 16.8354L18.6961 16.8354C18.4751 16.8353 18.2631 16.7474 18.1068 16.591C17.9506 16.4347 17.8628 16.2226 17.8629 16.0016C17.863 15.7805 17.9509 15.5685 18.1073 15.4123C18.2636 15.256 18.4757 15.1683 18.6967 15.1684L24 15.1684C24.2209 15.1686 24.4326 15.2566 24.5887 15.4129Z" fill="#181818"/>
</svg>
