<svg width="36" height="36" viewBox="0 0 36 36" fill="none" xmlns="http://www.w3.org/2000/svg">
<circle cx="17.75" cy="17.75" r="17.75" fill="#F4F4F4"/>
<path d="M18.0007 18.6654L13.9173 22.7487C13.7645 22.9015 13.5701 22.9779 13.334 22.9779C13.0979 22.9779 12.9034 22.9015 12.7507 22.7487C12.5979 22.5959 12.5215 22.4015 12.5215 22.1654C12.5215 21.9293 12.5979 21.7348 12.7507 21.582L16.834 17.4987L12.7507 13.4154C12.5979 13.2626 12.5215 13.0681 12.5215 12.832C12.5215 12.5959 12.5979 12.4015 12.7507 12.2487C12.9034 12.0959 13.0979 12.0195 13.334 12.0195C13.5701 12.0195 13.7645 12.0959 13.9173 12.2487L18.0007 16.332L22.084 12.2487C22.2368 12.0959 22.4312 12.0195 22.6673 12.0195C22.9034 12.0195 23.0979 12.0959 23.2507 12.2487C23.4034 12.4015 23.4798 12.5959 23.4798 12.832C23.4798 13.0681 23.4034 13.2626 23.2507 13.4154L19.1673 17.4987L23.2507 21.582C23.4034 21.7348 23.4798 21.9293 23.4798 22.1654C23.4798 22.4015 23.4034 22.5959 23.2507 22.7487C23.0979 22.9015 22.9034 22.9779 22.6673 22.9779C22.4312 22.9779 22.2368 22.9015 22.084 22.7487L18.0007 18.6654Z" fill="black"/>
</svg>
