<svg width="20" height="20" viewBox="0 0 20 20" fill="none" xmlns="http://www.w3.org/2000/svg">
<path d="M13.75 3.66667V2M6.25 3.66667V2M2.70833 6.16667H17.2917M2.5 7.87C2.5 6.1075 2.5 5.22583 2.86333 4.5525C3.19187 3.95192 3.70166 3.47042 4.32 3.17667C5.03333 2.83333 5.96667 2.83333 7.83333 2.83333H12.1667C14.0333 2.83333 14.9667 2.83333 15.68 3.17667C16.3075 3.47833 16.8167 3.96 17.1367 4.55167C17.5 5.22667 17.5 6.10833 17.5 7.87083V11.9642C17.5 13.7267 17.5 14.6083 17.1367 15.2817C16.8081 15.8822 16.2983 16.3637 15.68 16.6575C14.9667 17 14.0333 17 12.1667 17H7.83333C5.96667 17 5.03333 17 4.32 16.6567C3.70179 16.3631 3.19201 15.8819 2.86333 15.2817C2.5 14.6067 2.5 13.725 2.5 11.9625V7.87Z" stroke="#4F4F4F" stroke-width="1.5" stroke-linecap="round" stroke-linejoin="round"/>
</svg>
