<svg width="20" height="20" viewBox="0 0 20 20" fill="none" xmlns="http://www.w3.org/2000/svg">
<g clip-path="url(#clip0_151_9047)">
<path d="M12.0846 7.0011C12.0846 7.55363 11.8651 8.08354 11.4744 8.47424C11.0837 8.86494 10.5538 9.08443 10.0013 9.08443C9.44877 9.08443 8.91886 8.86494 8.52816 8.47424C8.13746 8.08354 7.91797 7.55363 7.91797 7.0011C7.91797 6.44857 8.13746 5.91866 8.52816 5.52796C8.91886 5.13726 9.44877 4.91777 10.0013 4.91777C10.5538 4.91777 11.0837 5.13726 11.4744 5.52796C11.8651 5.91866 12.0846 6.44857 12.0846 7.0011Z" stroke="#4F4F4F" stroke-width="1.5" stroke-linecap="round" stroke-linejoin="round"/>
<path d="M15.0017 16.168C15.0017 17.0888 12.7634 17.8346 10.0017 17.8346C7.24004 17.8346 5.0017 17.0888 5.0017 16.168M11.0492 14.0796C10.7677 14.3504 10.3923 14.5017 10.0017 14.5017C9.6111 14.5017 9.23568 14.3504 8.9542 14.0796C6.38004 11.5855 2.93087 8.79964 4.61254 4.75464C5.52337 2.56714 7.7067 1.16797 10.0017 1.16797C12.2967 1.16797 14.4809 2.56797 15.3909 4.75464C17.0709 8.7938 13.63 11.5938 11.0492 14.0796Z" stroke="#4F4F4F" stroke-width="1.5" stroke-linecap="round" stroke-linejoin="round"/>
</g>
<defs>
<clipPath id="clip0_151_9047">
<rect width="20" height="20" fill="white"/>
</clipPath>
</defs>
</svg>
