<svg width="36" height="36" viewBox="0 0 36 36" fill="none" xmlns="http://www.w3.org/2000/svg">
<circle cx="17.75" cy="17.75" r="17.75" fill="#EEEEEE"/>
<path d="M18.0007 18.1654L13.9173 22.2487C13.7645 22.4015 13.5701 22.4779 13.334 22.4779C13.0979 22.4779 12.9034 22.4015 12.7507 22.2487C12.5979 22.0959 12.5215 21.9015 12.5215 21.6654C12.5215 21.4293 12.5979 21.2348 12.7507 21.082L16.834 16.9987L12.7507 12.9154C12.5979 12.7626 12.5215 12.5681 12.5215 12.332C12.5215 12.0959 12.5979 11.9015 12.7507 11.7487C12.9034 11.5959 13.0979 11.5195 13.334 11.5195C13.5701 11.5195 13.7645 11.5959 13.9173 11.7487L18.0007 15.832L22.084 11.7487C22.2368 11.5959 22.4312 11.5195 22.6673 11.5195C22.9034 11.5195 23.0979 11.5959 23.2507 11.7487C23.4034 11.9015 23.4798 12.0959 23.4798 12.332C23.4798 12.5681 23.4034 12.7626 23.2507 12.9154L19.1673 16.9987L23.2507 21.082C23.4034 21.2348 23.4798 21.4293 23.4798 21.6654C23.4798 21.9015 23.4034 22.0959 23.2507 22.2487C23.0979 22.4015 22.9034 22.4779 22.6673 22.4779C22.4312 22.4779 22.2368 22.4015 22.084 22.2487L18.0007 18.1654Z" fill="black"/>
</svg>
