<svg width="30" height="30" viewBox="0 0 30 30" fill="none" xmlns="http://www.w3.org/2000/svg">
<circle cx="15" cy="15" r="15" fill="#EFEFEF"/>
<path d="M12.2917 15.8333C12.7889 15.8333 13.2659 16.0308 13.6175 16.3824C13.9691 16.7341 14.1667 17.211 14.1667 17.7083V20.6249C14.1667 21.1222 13.9691 21.5991 13.6175 21.9507C13.2659 22.3024 12.7889 22.4999 12.2917 22.4999H9.375C8.87772 22.4999 8.40081 22.3024 8.04917 21.9507C7.69754 21.5991 7.5 21.1222 7.5 20.6249V17.7083C7.5 17.211 7.69754 16.7341 8.04917 16.3824C8.40081 16.0308 8.87772 15.8333 9.375 15.8333H12.2917ZM20.625 15.8333C21.1223 15.8333 21.5992 16.0308 21.9508 16.3824C22.3025 16.7341 22.5 17.211 22.5 17.7083V20.6249C22.5 21.1222 22.3025 21.5991 21.9508 21.9507C21.5992 22.3024 21.1223 22.4999 20.625 22.4999H17.7083C17.2111 22.4999 16.7341 22.3024 16.3825 21.9507C16.0309 21.5991 15.8333 21.1222 15.8333 20.6249V17.7083C15.8333 17.211 16.0309 16.7341 16.3825 16.3824C16.7341 16.0308 17.2111 15.8333 17.7083 15.8333H20.625ZM12.2917 17.0833H9.375C9.20924 17.0833 9.05027 17.1491 8.93306 17.2663C8.81585 17.3835 8.75 17.5425 8.75 17.7083V20.6249C8.75 20.9699 9.03 21.2499 9.375 21.2499H12.2917C12.4574 21.2499 12.6164 21.1841 12.7336 21.0669C12.8508 20.9497 12.9167 20.7907 12.9167 20.6249V17.7083C12.9167 17.5425 12.8508 17.3835 12.7336 17.2663C12.6164 17.1491 12.4574 17.0833 12.2917 17.0833ZM20.625 17.0833H17.7083C17.5426 17.0833 17.3836 17.1491 17.2664 17.2663C17.1492 17.3835 17.0833 17.5425 17.0833 17.7083V20.6249C17.0833 20.9699 17.3633 21.2499 17.7083 21.2499H20.625C20.7908 21.2499 20.9497 21.1841 21.0669 21.0669C21.1842 20.9497 21.25 20.7907 21.25 20.6249V17.7083C21.25 17.5425 21.1842 17.3835 21.0669 17.2663C20.9497 17.1491 20.7908 17.0833 20.625 17.0833ZM12.2917 7.49992C12.7889 7.49992 13.2659 7.69746 13.6175 8.04909C13.9691 8.40073 14.1667 8.87764 14.1667 9.37492V12.2916C14.1667 12.7889 13.9691 13.2658 13.6175 13.6174C13.2659 13.969 12.7889 14.1666 12.2917 14.1666H9.375C8.87772 14.1666 8.40081 13.969 8.04917 13.6174C7.69754 13.2658 7.5 12.7889 7.5 12.2916V9.37492C7.5 8.87764 7.69754 8.40073 8.04917 8.04909C8.40081 7.69746 8.87772 7.49992 9.375 7.49992H12.2917ZM20.625 7.49992C21.1223 7.49992 21.5992 7.69746 21.9508 8.04909C22.3025 8.40073 22.5 8.87764 22.5 9.37492V12.2916C22.5 12.7889 22.3025 13.2658 21.9508 13.6174C21.5992 13.969 21.1223 14.1666 20.625 14.1666H17.7083C17.2111 14.1666 16.7341 13.969 16.3825 13.6174C16.0309 13.2658 15.8333 12.7889 15.8333 12.2916V9.37492C15.8333 8.87764 16.0309 8.40073 16.3825 8.04909C16.7341 7.69746 17.2111 7.49992 17.7083 7.49992H20.625ZM12.2917 8.74992H9.375C9.20924 8.74992 9.05027 8.81577 8.93306 8.93298C8.81585 9.05019 8.75 9.20916 8.75 9.37492V12.2916C8.75 12.6366 9.03 12.9166 9.375 12.9166H12.2917C12.4574 12.9166 12.6164 12.8507 12.7336 12.7335C12.8508 12.6163 12.9167 12.4573 12.9167 12.2916V9.37492C12.9167 9.20916 12.8508 9.05019 12.7336 8.93298C12.6164 8.81577 12.4574 8.74992 12.2917 8.74992ZM20.625 8.74992H17.7083C17.5426 8.74992 17.3836 8.81577 17.2664 8.93298C17.1492 9.05019 17.0833 9.20916 17.0833 9.37492V12.2916C17.0833 12.6366 17.3633 12.9166 17.7083 12.9166H20.625C20.7908 12.9166 20.9497 12.8507 21.0669 12.7335C21.1842 12.6163 21.25 12.4573 21.25 12.2916V9.37492C21.25 9.20916 21.1842 9.05019 21.0669 8.93298C20.9497 8.81577 20.7908 8.74992 20.625 8.74992Z" fill="#4F4F4F"/>
</svg>
