<svg width="30" height="30" viewBox="0 0 30 30" fill="none" xmlns="http://www.w3.org/2000/svg">
<circle cx="15" cy="15" r="15" fill="black"/>
<path d="M8.33398 10.8333C8.33398 10.6122 8.42178 10.4003 8.57806 10.244C8.73434 10.0877 8.9463 9.99992 9.16732 9.99992H10.0007C10.2217 9.99992 10.4336 10.0877 10.5899 10.244C10.7462 10.4003 10.834 10.6122 10.834 10.8333C10.834 11.0543 10.7462 11.2662 10.5899 11.4225C10.4336 11.5788 10.2217 11.6666 10.0007 11.6666H9.16732C8.9463 11.6666 8.73434 11.5788 8.57806 11.4225C8.42178 11.2662 8.33398 11.0543 8.33398 10.8333ZM12.5007 10.8333C12.5007 10.6122 12.5884 10.4003 12.7447 10.244C12.901 10.0877 13.113 9.99992 13.334 9.99992H20.834C21.055 9.99992 21.267 10.0877 21.4232 10.244C21.5795 10.4003 21.6673 10.6122 21.6673 10.8333C21.6673 11.0543 21.5795 11.2662 21.4232 11.4225C21.267 11.5788 21.055 11.6666 20.834 11.6666H13.334C13.113 11.6666 12.901 11.5788 12.7447 11.4225C12.5884 11.2662 12.5007 11.0543 12.5007 10.8333ZM8.33398 14.9999C8.33398 14.7789 8.42178 14.5669 8.57806 14.4107C8.73434 14.2544 8.9463 14.1666 9.16732 14.1666H10.0007C10.2217 14.1666 10.4336 14.2544 10.5899 14.4107C10.7462 14.5669 10.834 14.7789 10.834 14.9999C10.834 15.2209 10.7462 15.4329 10.5899 15.5892C10.4336 15.7455 10.2217 15.8333 10.0007 15.8333H9.16732C8.9463 15.8333 8.73434 15.7455 8.57806 15.5892C8.42178 15.4329 8.33398 15.2209 8.33398 14.9999ZM12.5007 14.9999C12.5007 14.7789 12.5884 14.5669 12.7447 14.4107C12.901 14.2544 13.113 14.1666 13.334 14.1666H20.834C21.055 14.1666 21.267 14.2544 21.4232 14.4107C21.5795 14.5669 21.6673 14.7789 21.6673 14.9999C21.6673 15.2209 21.5795 15.4329 21.4232 15.5892C21.267 15.7455 21.055 15.8333 20.834 15.8333H13.334C13.113 15.8333 12.901 15.7455 12.7447 15.5892C12.5884 15.4329 12.5007 15.2209 12.5007 14.9999ZM8.33398 19.1666C8.33398 18.9456 8.42178 18.7336 8.57806 18.5773C8.73434 18.4211 8.9463 18.3333 9.16732 18.3333H10.0007C10.2217 18.3333 10.4336 18.4211 10.5899 18.5773C10.7462 18.7336 10.834 18.9456 10.834 19.1666C10.834 19.3876 10.7462 19.5996 10.5899 19.7558C10.4336 19.9121 10.2217 19.9999 10.0007 19.9999H9.16732C8.9463 19.9999 8.73434 19.9121 8.57806 19.7558C8.42178 19.5996 8.33398 19.3876 8.33398 19.1666ZM12.5007 19.1666C12.5007 18.9456 12.5884 18.7336 12.7447 18.5773C12.901 18.4211 13.113 18.3333 13.334 18.3333H20.834C21.055 18.3333 21.267 18.4211 21.4232 18.5773C21.5795 18.7336 21.6673 18.9456 21.6673 19.1666C21.6673 19.3876 21.5795 19.5996 21.4232 19.7558C21.267 19.9121 21.055 19.9999 20.834 19.9999H13.334C13.113 19.9999 12.901 19.9121 12.7447 19.7558C12.5884 19.5996 12.5007 19.3876 12.5007 19.1666Z" fill="white"/>
</svg>
