<svg width="37" height="37" viewBox="0 0 37 37" fill="none" xmlns="http://www.w3.org/2000/svg">
<circle cx="18.5" cy="18.5" r="18.5" fill="#EEEEEE"/>
<path d="M20.0846 16.5001C20.0846 17.0526 19.8651 17.5825 19.4744 17.9732C19.0837 18.3639 18.5538 18.5834 18.0013 18.5834C17.4488 18.5834 16.9189 18.3639 16.5282 17.9732C16.1375 17.5825 15.918 17.0526 15.918 16.5001C15.918 15.9475 16.1375 15.4176 16.5282 15.0269C16.9189 14.6362 17.4488 14.4167 18.0013 14.4167C18.5538 14.4167 19.0837 14.6362 19.4744 15.0269C19.8651 15.4176 20.0846 15.9475 20.0846 16.5001Z" stroke="#4F4F4F" stroke-width="1.5" stroke-linecap="round" stroke-linejoin="round"/>
<path d="M23.0017 25.667C23.0017 26.5878 20.7634 27.3337 18.0017 27.3337C15.24 27.3337 13.0017 26.5878 13.0017 25.667M19.0492 23.5787C18.7677 23.8495 18.3923 24.0008 18.0017 24.0008C17.6111 24.0008 17.2357 23.8495 16.9542 23.5787C14.38 21.0845 10.9309 18.2987 12.6125 14.2537C13.5234 12.0662 15.7067 10.667 18.0017 10.667C20.2967 10.667 22.4809 12.067 23.3909 14.2537C25.0709 18.2928 21.63 21.0928 19.0492 23.5787Z" stroke="#4F4F4F" stroke-width="1.5" stroke-linecap="round" stroke-linejoin="round"/>
</svg>
