<svg width="37" height="37" viewBox="0 0 37 37" fill="none" xmlns="http://www.w3.org/2000/svg">
<circle cx="18.5" cy="18.5" r="18.5" fill="black"/>
<path d="M25.0819 25.0817L21.6228 21.6226M21.6228 21.6226C22.178 21.0674 22.6184 20.4082 22.9189 19.6828C23.2194 18.9574 23.374 18.1799 23.374 17.3948C23.374 16.6096 23.2194 15.8321 22.9189 15.1067C22.6184 14.3813 22.178 13.7222 21.6228 13.167C21.0676 12.6118 20.4085 12.1714 19.6831 11.8709C18.9577 11.5704 18.1802 11.4158 17.395 11.4158C16.6098 11.4158 15.8324 11.5704 15.107 11.8709C14.3815 12.1714 13.7224 12.6118 13.1672 13.167C12.0459 14.2883 11.416 15.809 11.416 17.3948C11.416 18.9805 12.0459 20.5013 13.1672 21.6226C14.2885 22.7438 15.8093 23.3738 17.395 23.3738C18.9807 23.3738 20.5015 22.7438 21.6228 21.6226Z" stroke="white" stroke-width="1.5" stroke-linecap="round" stroke-linejoin="round"/>
</svg>
