<svg width="50" height="50" viewBox="0 0 50 50" fill="none" xmlns="http://www.w3.org/2000/svg">
<circle cx="25" cy="25" r="25" fill="#F2F2F2"/>
<g clip-path="url(#clip0_3045_1436)">
<path d="M27.0843 22.5C27.0843 23.0526 26.8648 23.5825 26.4741 23.9732C26.0834 24.3639 25.5535 24.5834 25.0009 24.5834C24.4484 24.5834 23.9185 24.3639 23.5278 23.9732C23.1371 23.5825 22.9176 23.0526 22.9176 22.5C22.9176 21.9475 23.1371 21.4176 23.5278 21.0269C23.9185 20.6362 24.4484 20.4167 25.0009 20.4167C25.5535 20.4167 26.0834 20.6362 26.4741 21.0269C26.8648 21.4176 27.0843 21.9475 27.0843 22.5Z" stroke="#4F4F4F" stroke-width="1.5" stroke-linecap="round" stroke-linejoin="round"/>
<path d="M30.0016 31.6669C30.0016 32.5877 27.7632 33.3336 25.0016 33.3336C22.2399 33.3336 20.0016 32.5877 20.0016 31.6669M26.0491 29.5786C25.7676 29.8494 25.3922 30.0007 25.0016 30.0007C24.611 30.0007 24.2356 29.8494 23.9541 29.5786C21.3799 27.0844 17.9307 24.2986 19.6124 20.2536C20.5232 18.0661 22.7066 16.6669 25.0016 16.6669C27.2966 16.6669 29.4807 18.0669 30.3907 20.2536C32.0707 24.2927 28.6299 27.0927 26.0491 29.5786Z" stroke="#4F4F4F" stroke-width="1.5" stroke-linecap="round" stroke-linejoin="round"/>
</g>
<defs>
<clipPath id="clip0_3045_1436">
<rect width="20" height="20" fill="white" transform="translate(14.9999 14.9999)"/>
</clipPath>
</defs>
</svg>
