<svg width="32" height="32" viewBox="0 0 32 32" fill="none" xmlns="http://www.w3.org/2000/svg">
<circle cx="16" cy="16" r="15.5" transform="matrix(-1 0 0 1 32 0)" fill="white" stroke="#181818"/>
<path fill-rule="evenodd" clip-rule="evenodd" d="M11.8076 16C11.8076 16.1769 11.8779 16.3464 12.0029 16.4714C12.1279 16.5965 12.2975 16.6667 12.4743 16.6667H20.8076C20.9844 16.6667 21.154 16.5965 21.279 16.4714C21.404 16.3464 21.4743 16.1769 21.4743 16C21.4743 15.8232 21.404 15.6537 21.279 15.5286C21.154 15.4036 20.9844 15.3334 20.8076 15.3334H12.4743C12.2975 15.3334 12.1279 15.4036 12.0029 15.5286C11.8779 15.6537 11.8076 15.8232 11.8076 16Z" fill="#181818"/>
<path fill-rule="evenodd" clip-rule="evenodd" d="M10.8076 15.9997C10.8077 16.1765 10.8779 16.346 11.003 16.471L14.003 19.471C14.128 19.5961 14.2975 19.6664 14.4744 19.6665C14.6512 19.6666 14.8209 19.5964 14.946 19.4714C15.071 19.3463 15.1414 19.1768 15.1414 18.9999C15.1415 18.8231 15.0713 18.6534 14.9463 18.5284L12.417 15.9997L14.9456 13.471C15.0706 13.3459 15.1408 13.1763 15.1408 12.9995C15.1407 12.8226 15.0704 12.653 14.9453 12.528C14.8202 12.403 14.6506 12.3328 14.4737 12.3329C14.2969 12.3329 14.1273 12.4033 14.0023 12.5284L11.0023 15.5284C10.8775 15.6535 10.8075 15.823 10.8076 15.9997Z" fill="#181818"/>
</svg>
