<svg width="32" height="32" viewBox="0 0 32 32" fill="none" xmlns="http://www.w3.org/2000/svg">
<circle cx="16" cy="16" r="15.5" transform="matrix(-1 0 0 1 32 0)" fill="white" stroke="#181818"/>
<path fill-rule="evenodd" clip-rule="evenodd" d="M11.808 16C11.808 16.1769 11.8783 16.3464 12.0033 16.4714C12.1283 16.5965 12.2979 16.6667 12.4747 16.6667H20.808C20.9848 16.6667 21.1544 16.5965 21.2794 16.4714C21.4044 16.3464 21.4747 16.1769 21.4747 16C21.4747 15.8232 21.4044 15.6537 21.2794 15.5286C21.1544 15.4036 20.9848 15.3334 20.808 15.3334H12.4747C12.2979 15.3334 12.1283 15.4036 12.0033 15.5286C11.8783 15.6537 11.808 15.8232 11.808 16Z" fill="#181818"/>
<path fill-rule="evenodd" clip-rule="evenodd" d="M10.808 15.9994C10.8081 16.1762 10.8783 16.3458 11.0033 16.4708L14.0033 19.4708C14.1284 19.5959 14.2979 19.6662 14.4748 19.6662C14.6516 19.6663 14.8213 19.5961 14.9463 19.4711C15.0714 19.3461 15.1418 19.1765 15.1418 18.9997C15.1419 18.8228 15.0717 18.6532 14.9467 18.5281L12.4173 15.9994L14.946 13.4708C15.071 13.3457 15.1412 13.1761 15.1411 12.9992C15.1411 12.8224 15.0708 12.6528 14.9457 12.5278C14.8206 12.4028 14.651 12.3326 14.4741 12.3326C14.2973 12.3327 14.1277 12.403 14.0027 12.5281L11.0027 15.5281C10.8779 15.6532 10.8079 15.8227 10.808 15.9994Z" fill="#181818"/>
</svg>
