<svg width="50" height="50" viewBox="0 0 50 50" fill="none" xmlns="http://www.w3.org/2000/svg">
<circle cx="25" cy="25" r="25" fill="#FF4000"/>
<path d="M31.6696 31.6666L28.2946 28.2916M28.2946 28.2916C28.8363 27.7499 29.266 27.1068 29.5591 26.3991C29.8523 25.6913 30.0032 24.9327 30.0032 24.1666C30.0032 23.4006 29.8523 22.642 29.5591 21.9342C29.266 21.2264 28.8363 20.5833 28.2946 20.0416C27.7529 19.4999 27.1098 19.0702 26.402 18.7771C25.6942 18.4839 24.9357 18.333 24.1696 18.333C23.4035 18.333 22.6449 18.4839 21.9371 18.7771C21.2294 19.0702 20.5863 19.4999 20.0446 20.0416C18.9506 21.1357 18.3359 22.6195 18.3359 24.1666C18.3359 25.7138 18.9506 27.1976 20.0446 28.2916C21.1386 29.3857 22.6224 30.0003 24.1696 30.0003C25.7167 30.0003 27.2006 29.3857 28.2946 28.2916Z" stroke="white" stroke-width="2" stroke-linecap="round" stroke-linejoin="round"/>
</svg>
